<svg width="2600" height="1304" viewBox="0 0 2600 1304" fill="none" xmlns="http://www.w3.org/2000/svg">
<rect width="2600" height="1304" fill="white"/>
<g filter="url(#filter0_d_95_173)">
<path fill-rule="evenodd" clip-rule="evenodd" d="M436.45 818.245L725.234 652.151C726.474 651.438 728 651.441 729.237 652.159L1104.77 870.268L1111.43 866.432V876.327L1111.02 876.564C1110.92 877.792 1110.25 878.978 1109.03 879.68L815.803 1048.33C814.563 1049.04 813.037 1049.04 811.8 1048.32L431.989 827.729C430.7 826.98 430.037 825.691 430 824.386L429.603 824.155V814.26L436.45 818.245Z" fill="#D9D9D9"/>
<path d="M725.234 652.151L725.483 652.584L725.483 652.584L725.234 652.151ZM436.45 818.245L436.198 818.677L436.448 818.823L436.699 818.678L436.45 818.245ZM729.237 652.159L729.488 651.727L729.488 651.727L729.237 652.159ZM1104.77 870.268L1104.52 870.701L1104.77 870.846L1105.02 870.702L1104.77 870.268ZM1111.43 866.432H1111.93V865.567L1111.19 865.999L1111.43 866.432ZM1111.43 876.327L1111.68 876.76L1111.93 876.616V876.327H1111.43ZM1111.02 876.564L1110.77 876.131L1110.55 876.261L1110.53 876.521L1111.02 876.564ZM1109.03 879.68L1109.28 880.113L1109.28 880.113L1109.03 879.68ZM815.803 1048.33L816.053 1048.76L816.053 1048.76L815.803 1048.33ZM811.8 1048.32L811.549 1048.75L811.549 1048.75L811.8 1048.32ZM431.989 827.729L431.738 828.161L431.738 828.161L431.989 827.729ZM430 824.386L430.499 824.372L430.492 824.094L430.252 823.954L430 824.386ZM429.603 824.155H429.103V824.442L429.351 824.587L429.603 824.155ZM429.603 814.26L429.854 813.828L429.103 813.391V814.26H429.603ZM725.234 652.151L724.985 651.718L436.201 817.812L436.45 818.245L436.699 818.678L725.483 652.584L725.234 652.151ZM729.237 652.159L729.488 651.727C728.097 650.919 726.38 650.915 724.985 651.718L725.234 652.151L725.483 652.584C726.568 651.96 727.904 651.963 728.986 652.592L729.237 652.159ZM1104.77 870.268L1105.02 869.836L729.488 651.727L729.237 652.159L728.986 652.592L1104.52 870.701L1104.77 870.268ZM1111.43 866.432L1111.19 865.999L1104.52 869.835L1104.77 870.268L1105.02 870.702L1111.68 866.865L1111.43 866.432ZM1111.43 876.327H1111.93V866.432H1111.43H1110.93V876.327H1111.43ZM1111.02 876.564L1111.27 876.997L1111.68 876.76L1111.43 876.327L1111.19 875.894L1110.77 876.131L1111.02 876.564ZM1109.03 879.68L1109.28 880.113C1110.65 879.324 1111.4 877.987 1111.52 876.607L1111.02 876.564L1110.53 876.521C1110.43 877.597 1109.85 878.631 1108.78 879.246L1109.03 879.68ZM815.803 1048.33L816.053 1048.76L1109.28 880.113L1109.03 879.68L1108.78 879.246L815.554 1047.9L815.803 1048.33ZM811.8 1048.32L811.549 1048.75C812.941 1049.56 814.658 1049.57 816.053 1048.76L815.803 1048.33L815.554 1047.9C814.469 1048.52 813.134 1048.52 812.051 1047.89L811.8 1048.32ZM431.989 827.729L431.738 828.161L811.549 1048.75L811.8 1048.32L812.051 1047.89L432.24 827.296L431.989 827.729ZM430 824.386L429.5 824.401C429.542 825.865 430.288 827.319 431.738 828.161L431.989 827.729L432.24 827.296C431.111 826.641 430.532 825.516 430.499 824.372L430 824.386ZM429.603 824.155L429.351 824.587L429.748 824.818L430 824.386L430.252 823.954L429.855 823.723L429.603 824.155ZM429.603 814.26H429.103V824.155H429.603H430.103V814.26H429.603ZM436.45 818.245L436.701 817.813L429.854 813.828L429.603 814.26L429.351 814.692L436.198 818.677L436.45 818.245Z" fill="black"/>
<path d="M725.229 640.116L431.999 808.767C429.331 810.301 429.323 814.147 431.985 815.693L811.796 1036.29C813.033 1037.01 814.559 1037.01 815.799 1036.3L1109.03 867.644C1111.7 866.11 1111.7 862.263 1109.04 860.718L729.233 640.124C727.996 639.406 726.469 639.402 725.229 640.116Z" stroke="black"/>
<path d="M725.234 640.457C726.474 639.744 728 639.747 729.237 640.466L1109.05 861.059C1111.71 862.605 1111.7 866.452 1109.03 867.986L815.803 1036.64C814.563 1037.35 813.036 1037.35 811.799 1036.63L431.989 816.035C429.328 814.489 429.336 810.643 432.004 809.108L725.234 640.457ZM732.963 652.159C731.726 651.441 730.199 651.437 728.96 652.15L455.393 809.46C452.725 810.994 452.717 814.841 455.379 816.387L809.876 1022.24C811.112 1022.95 812.639 1022.96 813.879 1022.24L1087.44 864.935C1090.11 863.401 1090.12 859.554 1087.46 858.009L732.963 652.159Z" fill="black"/>
<path d="M728.954 652.078L455.388 809.388C452.72 810.923 452.712 814.769 455.373 816.315L809.87 1022.16C811.107 1022.88 812.633 1022.89 813.873 1022.17L1087.44 864.863C1090.11 863.329 1090.12 859.482 1087.45 857.937L732.957 652.087C731.72 651.369 730.194 651.366 728.954 652.078Z" fill="#FFF5EA"/>
<g filter="url(#filter1_d_95_173)">
<path d="M800.198 644.36L722.39 599.384L644.582 644.36L722.39 689.336L800.198 644.36Z" fill="#FF8A46"/>
<path d="M722.39 779.287V689.336L800.198 644.36V734.311L722.39 779.287Z" fill="#DE5C0D"/>
<path d="M722.39 779.287V689.336L644.582 644.36V734.311L722.39 779.287Z" fill="#FE6F32"/>
</g>
<g filter="url(#filter2_d_95_173)">
<path d="M911.78 887.398L829.882 839.222L900.539 799.076L982.437 847.252L911.78 887.398Z" fill="#FFCF30"/>
</g>
<path d="M911.749 816.334L829.852 768.159L900.509 728.013L982.406 776.188L911.749 816.334Z" fill="url(#paint0_linear_95_173)"/>
<path d="M829.852 839.456V768.159L911.749 816.334V886.991L829.852 839.456Z" fill="#FFCF30"/>
<path d="M982.406 850.057V776.188L911.75 816.334V886.991L982.406 850.057Z" fill="#F3872D"/>
<path d="M911.728 766.694L839.776 724.499L901.852 689.336L973.804 731.531L911.728 766.694Z" fill="#FFCF30"/>
<path d="M870.16 458.11L801.109 496.65V470.956L810.744 369.788L894.248 384.241C881.401 386.81 872.836 434.557 870.16 458.11Z" fill="url(#paint1_linear_95_173)"/>
<path d="M831.62 718.546L913.518 766.722L922.965 723.196C922.965 681.444 923.153 667.16 956.876 636.649C990.598 606.138 986.258 603.736 997.022 585.262C1040.09 515.204 1033.25 414.906 1001.65 371.517C970.054 328.128 901.377 283.022 812.162 286.407C733.798 305.677 715.464 404.337 717.606 450.371L801.109 496.941C797.898 405.408 847.679 363.656 891.036 394.167C934.394 424.678 961.693 498.546 913.518 540.298C865.343 582.05 835.119 612.825 831.62 718.546Z" fill="#FFCF30"/>
<path d="M984.175 726.284L913.518 766.431C912.508 702.759 917.832 673.712 947.241 644.387C975.407 618.622 989.168 598.01 1011.47 554.46C1026.89 523.628 1021.11 466.674 1016.29 442.051C984.175 308.445 862.335 283.87 805.596 288.152L892.849 257.568C1016.18 242.152 1064.47 344.095 1082.13 400.299C1096.4 461.444 1098 490.349 1082.13 541.613C1068.33 571.899 1058.21 587.003 1033.96 609.058C1001.65 638.435 985.541 654.409 984.175 695.774V726.284Z" fill="url(#paint2_linear_95_173)"/>
<g filter="url(#filter3_d_95_173)">
<path d="M824.486 817.966L746.678 772.99L668.87 817.966L746.678 862.942L824.486 817.966Z" fill="#46D3FF"/>
</g>
<path d="M668.87 817.966L746.678 705.527V862.942L668.87 817.966Z" fill="#46D3FF"/>
<path d="M824.485 817.966L746.677 862.942V705.527L824.485 817.966Z" fill="#32C1FE"/>
<g filter="url(#filter4_d_95_173)">
<ellipse cx="617.282" cy="802.585" rx="55.1852" ry="31.8428" fill="#32FE84"/>
</g>
<path d="M672.468 711.823V802.674H672.466C672.382 820.219 647.708 834.427 617.282 834.427C586.804 834.427 562.097 820.171 562.097 802.584C562.097 801.713 562.158 800.851 562.277 799.997V711.823H672.468Z" fill="#0DDE72"/>
<ellipse cx="617.282" cy="712.723" rx="55.1852" ry="31.8428" fill="#32FE84"/>
</g>
<path d="M1225.43 629H1185C1183.82 629 1183.24 628.414 1183.24 627.242L1183.94 379.918C1183.94 378.98 1184.41 378.512 1185.35 378.512H1300.66C1301.83 378.512 1302.42 378.98 1302.42 379.918V420.523C1302.42 421.461 1301.95 421.93 1301.01 421.93H1227.18V477.828H1301.01C1301.95 477.828 1302.42 478.414 1302.42 479.586L1302.77 520.367C1302.77 521.305 1302.18 521.773 1301.01 521.773H1227.18V627.242C1227.18 628.414 1226.6 629 1225.43 629ZM1377.3 629H1336.52C1335.35 629 1334.76 628.414 1334.76 627.242L1335.11 379.918C1335.11 378.98 1335.58 378.512 1336.52 378.512H1376.95C1377.89 378.512 1378.36 378.98 1378.36 379.918L1378.71 627.242C1378.71 628.414 1378.24 629 1377.3 629ZM1449.55 629H1413.51C1411.64 629 1410.7 628.18 1410.7 626.539L1410.35 381.324C1410.35 379.449 1411.29 378.512 1413.16 378.512H1445.68L1506.5 520.367L1504.74 381.324C1504.74 379.449 1505.8 378.512 1507.91 378.512H1543.59C1545 378.512 1545.7 379.449 1545.7 381.324L1546.05 626.891C1546.05 628.297 1545.46 629 1544.29 629H1512.65L1450.25 496.461L1452.89 626.188C1452.89 628.062 1451.77 629 1449.55 629ZM1643.61 628.648L1579.1 629C1577.93 629 1577.34 628.414 1577.34 627.242L1578.04 379.918C1578.04 378.98 1578.51 378.512 1579.45 378.512L1646.77 378.16C1660.13 377.809 1672.2 380.855 1682.98 387.301C1693.88 393.746 1702.55 402.477 1709 413.492C1715.56 424.391 1718.84 436.461 1718.84 449.703V553.062C1718.84 566.891 1715.5 579.547 1708.82 591.031C1702.03 602.398 1693 611.48 1681.75 618.277C1670.5 624.957 1657.79 628.414 1643.61 628.648ZM1646.77 421.227L1621.64 421.578L1621.29 584.703H1643.61C1652.52 584.703 1660.02 581.598 1666.11 575.387C1672.2 569.176 1675.25 561.734 1675.25 553.062V449.352C1675.25 441.734 1672.44 435.113 1666.81 429.488C1661.19 423.746 1654.51 420.992 1646.77 421.227Z" fill="black"/>
<path d="M1461.16 905.516C1448.15 905.516 1436.43 902.293 1426 895.848C1415.45 889.402 1406.96 880.73 1400.51 869.832C1394.18 858.934 1391.02 846.746 1391.02 833.27V719.188C1391.02 706.062 1394.24 694.109 1400.69 683.328C1407.02 672.43 1415.51 663.758 1426.18 657.312C1436.84 650.75 1448.5 647.469 1461.16 647.469C1474.4 647.469 1486.35 650.633 1497.02 656.961C1507.68 663.406 1516.12 672.02 1522.33 682.801C1528.66 693.582 1531.82 705.711 1531.82 719.188V735.711C1531.82 736.648 1531.23 737.117 1530.06 737.117H1489.63C1488.7 737.117 1488.23 736.648 1488.23 735.711V722C1488.23 712.859 1485.65 705.301 1480.49 699.324C1475.34 693.348 1468.89 690.359 1461.16 690.359C1454.24 690.359 1448.09 693.23 1442.7 698.973C1437.31 704.715 1434.61 711.453 1434.61 719.188V833.27C1434.61 841.121 1437.25 847.918 1442.52 853.66C1447.8 859.285 1454.01 862.098 1461.16 862.098C1468.89 862.098 1475.34 859.344 1480.49 853.836C1485.65 848.211 1488.23 841.355 1488.23 833.27V815.516H1463.09C1461.8 815.516 1461.16 814.93 1461.16 813.758V773.504C1461.16 772.332 1461.8 771.746 1463.09 771.746H1530.41C1531.35 771.746 1531.82 772.332 1531.82 773.504V833.27C1531.82 846.746 1528.66 858.934 1522.33 869.832C1515.88 880.73 1507.39 889.402 1496.84 895.848C1486.29 902.293 1474.4 905.516 1461.16 905.516ZM1623.58 905.516C1610.92 905.516 1599.2 902.234 1588.42 895.672C1577.64 889.109 1569.03 880.32 1562.58 869.305C1556.25 858.172 1553.09 846.043 1553.09 832.918L1553.79 652.918C1553.79 651.98 1554.26 651.512 1555.2 651.512H1595.63C1596.57 651.512 1597.04 651.98 1597.04 652.918V832.918C1597.04 841.004 1599.61 847.918 1604.77 853.66C1609.93 859.285 1616.2 862.098 1623.58 862.098C1631.31 862.098 1637.76 859.285 1642.91 853.66C1648.07 847.918 1650.65 841.004 1650.65 832.918V652.918C1650.65 651.98 1651.12 651.512 1652.05 651.512H1692.48C1693.42 651.512 1693.89 651.98 1693.89 652.918L1694.59 832.918C1694.59 846.16 1691.43 858.348 1685.1 869.48C1678.66 880.496 1670.1 889.285 1659.44 895.848C1648.77 902.293 1636.82 905.516 1623.58 905.516ZM1840.67 902H1724.3C1723.36 902 1722.89 901.414 1722.89 900.242L1723.25 652.918C1723.25 651.98 1723.71 651.512 1724.65 651.512H1840.32C1841.25 651.512 1841.72 652.098 1841.72 653.27V693.523C1841.72 694.461 1841.25 694.93 1840.32 694.93H1766.49V751.18H1840.32C1841.25 751.18 1841.72 751.648 1841.72 752.586L1842.07 793.367C1842.07 794.305 1841.61 794.773 1840.67 794.773H1766.49V857.703H1840.67C1841.61 857.703 1842.07 858.289 1842.07 859.461V900.594C1842.07 901.531 1841.61 902 1840.67 902ZM1935.24 905.516C1922.46 905.516 1910.69 902.234 1899.91 895.672C1889.24 889.109 1880.69 880.379 1874.24 869.48C1867.91 858.465 1864.75 846.395 1864.75 833.27V816.746C1864.75 815.457 1865.34 814.812 1866.51 814.812H1906.94C1907.88 814.812 1908.34 815.457 1908.34 816.746V833.27C1908.34 841.121 1910.98 847.918 1916.25 853.66C1921.53 859.285 1927.86 862.098 1935.24 862.098C1942.74 862.098 1949.12 859.227 1954.4 853.484C1959.67 847.625 1962.31 840.887 1962.31 833.27C1962.31 824.48 1956.57 816.805 1945.08 810.242C1943.21 809.07 1940.75 807.664 1937.7 806.023C1934.77 804.266 1931.25 802.273 1927.15 800.047C1923.05 797.82 1919.07 795.652 1915.2 793.543C1911.33 791.316 1907.58 789.207 1903.95 787.215C1890.82 779.48 1881.04 769.812 1874.59 758.211C1868.27 746.492 1865.1 733.367 1865.1 718.836C1865.1 705.477 1868.38 693.406 1874.95 682.625C1881.51 671.961 1890.06 663.523 1900.61 657.312C1911.27 650.984 1922.82 647.82 1935.24 647.82C1948.01 647.82 1959.73 650.984 1970.39 657.312C1981.06 663.758 1989.55 672.312 1995.88 682.977C2002.33 693.641 2005.55 705.594 2005.55 718.836V748.367C2005.55 749.305 2005.08 749.773 2004.14 749.773H1963.71C1962.78 749.773 1962.31 749.305 1962.31 748.367L1961.96 718.836C1961.96 710.398 1959.32 703.543 1954.05 698.27C1948.77 692.996 1942.5 690.359 1935.24 690.359C1927.86 690.359 1921.53 693.172 1916.25 698.797C1910.98 704.422 1908.34 711.102 1908.34 718.836C1908.34 726.688 1909.98 733.25 1913.27 738.523C1916.66 743.797 1922.82 748.836 1931.72 753.641C1932.66 754.109 1934.83 755.281 1938.23 757.156C1941.62 759.031 1945.38 761.141 1949.48 763.484C1953.7 765.711 1957.5 767.762 1960.9 769.637C1964.3 771.395 1966.35 772.449 1967.05 772.801C1979.01 779.48 1988.44 787.684 1995.36 797.41C2002.39 807.137 2005.9 819.09 2005.9 833.27C2005.9 846.98 2002.74 859.285 1996.41 870.184C1989.96 881.082 1981.41 889.695 1970.75 896.023C1960.08 902.352 1948.25 905.516 1935.24 905.516ZM2092.04 905.516C2079.26 905.516 2067.48 902.234 2056.7 895.672C2046.04 889.109 2037.48 880.379 2031.04 869.48C2024.71 858.465 2021.55 846.395 2021.55 833.27V816.746C2021.55 815.457 2022.13 814.812 2023.3 814.812H2063.73C2064.67 814.812 2065.14 815.457 2065.14 816.746V833.27C2065.14 841.121 2067.78 847.918 2073.05 853.66C2078.32 859.285 2084.65 862.098 2092.04 862.098C2099.54 862.098 2105.92 859.227 2111.2 853.484C2116.47 847.625 2119.11 840.887 2119.11 833.27C2119.11 824.48 2113.36 816.805 2101.88 810.242C2100 809.07 2097.54 807.664 2094.5 806.023C2091.57 804.266 2088.05 802.273 2083.95 800.047C2079.85 797.82 2075.86 795.652 2072 793.543C2068.13 791.316 2064.38 789.207 2060.75 787.215C2047.62 779.48 2037.84 769.812 2031.39 758.211C2025.06 746.492 2021.9 733.367 2021.9 718.836C2021.9 705.477 2025.18 693.406 2031.74 682.625C2038.3 671.961 2046.86 663.523 2057.41 657.312C2068.07 650.984 2079.61 647.82 2092.04 647.82C2104.81 647.82 2116.53 650.984 2127.19 657.312C2137.86 663.758 2146.35 672.312 2152.68 682.977C2159.12 693.641 2162.35 705.594 2162.35 718.836V748.367C2162.35 749.305 2161.88 749.773 2160.94 749.773H2120.51C2119.57 749.773 2119.11 749.305 2119.11 748.367L2118.75 718.836C2118.75 710.398 2116.12 703.543 2110.84 698.27C2105.57 692.996 2099.3 690.359 2092.04 690.359C2084.65 690.359 2078.32 693.172 2073.05 698.797C2067.78 704.422 2065.14 711.102 2065.14 718.836C2065.14 726.688 2066.78 733.25 2070.06 738.523C2073.46 743.797 2079.61 748.836 2088.52 753.641C2089.46 754.109 2091.62 755.281 2095.02 757.156C2098.42 759.031 2102.17 761.141 2106.27 763.484C2110.49 765.711 2114.3 767.762 2117.7 769.637C2121.1 771.395 2123.15 772.449 2123.85 772.801C2135.8 779.48 2145.24 787.684 2152.15 797.41C2159.18 807.137 2162.7 819.09 2162.7 833.27C2162.7 846.98 2159.54 859.285 2153.21 870.184C2146.76 881.082 2138.21 889.695 2127.54 896.023C2116.88 902.352 2105.04 905.516 2092.04 905.516Z" fill="black"/>
<path d="M1199.35 733H1185.82C1185.46 733 1185.29 732.805 1185.29 732.414V663.977H1169.7C1169.31 663.977 1169.12 663.781 1169.12 663.391L1169.23 649.973C1169.23 649.66 1169.39 649.504 1169.7 649.504H1215.29C1215.72 649.504 1215.93 649.66 1215.93 649.973V663.391C1215.93 663.781 1215.78 663.977 1215.46 663.977H1199.7L1199.82 732.414C1199.82 732.805 1199.66 733 1199.35 733ZM1235.86 733H1222.26C1221.95 733 1221.79 732.805 1221.79 732.414L1221.91 649.973C1221.91 649.66 1222.11 649.504 1222.5 649.504H1235.86C1236.25 649.504 1236.44 649.66 1236.44 649.973L1236.32 682.609H1254.31V649.973C1254.31 649.66 1254.47 649.504 1254.78 649.504H1268.14C1268.53 649.504 1268.73 649.66 1268.73 649.973L1268.96 732.414C1268.96 732.805 1268.77 733 1268.38 733H1254.9C1254.51 733 1254.31 732.805 1254.31 732.414V697.141H1236.32V732.414C1236.32 732.805 1236.17 733 1235.86 733ZM1318 733H1279.21C1278.9 733 1278.75 732.805 1278.75 732.414L1278.86 649.973C1278.86 649.66 1279.02 649.504 1279.33 649.504H1317.89C1318.2 649.504 1318.36 649.699 1318.36 650.09V663.508C1318.36 663.82 1318.2 663.977 1317.89 663.977H1293.28V682.727H1317.89C1318.2 682.727 1318.36 682.883 1318.36 683.195L1318.47 696.789C1318.47 697.102 1318.32 697.258 1318 697.258H1293.28V718.234H1318C1318.32 718.234 1318.47 718.43 1318.47 718.82V732.531C1318.47 732.844 1318.32 733 1318 733ZM1342.2 733H1330.19C1329.57 733 1329.25 732.727 1329.25 732.18L1329.14 650.441C1329.14 649.816 1329.45 649.504 1330.07 649.504H1340.91L1361.19 696.789L1360.6 650.441C1360.6 649.816 1360.95 649.504 1361.66 649.504H1373.55C1374.02 649.504 1374.25 649.816 1374.25 650.441L1374.37 732.297C1374.37 732.766 1374.18 733 1373.79 733H1363.24L1342.44 688.82L1343.32 732.062C1343.32 732.688 1342.95 733 1342.2 733Z" fill="black"/>
<defs>
<filter id="filter0_d_95_173" x="425.103" y="256" width="690.832" height="801.363" filterUnits="userSpaceOnUse" color-interpolation-filters="sRGB">
<feFlood flood-opacity="0" result="BackgroundImageFix"/>
<feColorMatrix in="SourceAlpha" type="matrix" values="0 0 0 0 0 0 0 0 0 0 0 0 0 0 0 0 0 0 127 0" result="hardAlpha"/>
<feOffset dy="4"/>
<feGaussianBlur stdDeviation="2"/>
<feComposite in2="hardAlpha" operator="out"/>
<feColorMatrix type="matrix" values="0 0 0 0 1 0 0 0 0 1 0 0 0 0 1 0 0 0 0.25 0"/>
<feBlend mode="normal" in2="BackgroundImageFix" result="effect1_dropShadow_95_173"/>
<feBlend mode="normal" in="SourceGraphic" in2="effect1_dropShadow_95_173" result="shape"/>
</filter>
<filter id="filter1_d_95_173" x="634.582" y="599.384" width="175.616" height="229.903" filterUnits="userSpaceOnUse" color-interpolation-filters="sRGB">
<feFlood flood-opacity="0" result="BackgroundImageFix"/>
<feColorMatrix in="SourceAlpha" type="matrix" values="0 0 0 0 0 0 0 0 0 0 0 0 0 0 0 0 0 0 127 0" result="hardAlpha"/>
<feOffset dy="40"/>
<feGaussianBlur stdDeviation="5"/>
<feComposite in2="hardAlpha" operator="out"/>
<feColorMatrix type="matrix" values="0 0 0 0 0 0 0 0 0 0 0 0 0 0 0 0 0 0 0.25 0"/>
<feBlend mode="normal" in2="BackgroundImageFix" result="effect1_dropShadow_95_173"/>
<feBlend mode="normal" in="SourceGraphic" in2="effect1_dropShadow_95_173" result="shape"/>
</filter>
<filter id="filter2_d_95_173" x="819.882" y="799.076" width="172.555" height="108.321" filterUnits="userSpaceOnUse" color-interpolation-filters="sRGB">
<feFlood flood-opacity="0" result="BackgroundImageFix"/>
<feColorMatrix in="SourceAlpha" type="matrix" values="0 0 0 0 0 0 0 0 0 0 0 0 0 0 0 0 0 0 127 0" result="hardAlpha"/>
<feOffset dy="10"/>
<feGaussianBlur stdDeviation="5"/>
<feComposite in2="hardAlpha" operator="out"/>
<feColorMatrix type="matrix" values="0 0 0 0 0 0 0 0 0 0 0 0 0 0 0 0 0 0 0.25 0"/>
<feBlend mode="normal" in2="BackgroundImageFix" result="effect1_dropShadow_95_173"/>
<feBlend mode="normal" in="SourceGraphic" in2="effect1_dropShadow_95_173" result="shape"/>
</filter>
<filter id="filter3_d_95_173" x="658.87" y="772.99" width="175.616" height="139.951" filterUnits="userSpaceOnUse" color-interpolation-filters="sRGB">
<feFlood flood-opacity="0" result="BackgroundImageFix"/>
<feColorMatrix in="SourceAlpha" type="matrix" values="0 0 0 0 0 0 0 0 0 0 0 0 0 0 0 0 0 0 127 0" result="hardAlpha"/>
<feOffset dy="40"/>
<feGaussianBlur stdDeviation="5"/>
<feComposite in2="hardAlpha" operator="out"/>
<feColorMatrix type="matrix" values="0 0 0 0 0 0 0 0 0 0 0 0 0 0 0 0 0 0 0.25 0"/>
<feBlend mode="normal" in2="BackgroundImageFix" result="effect1_dropShadow_95_173"/>
<feBlend mode="normal" in="SourceGraphic" in2="effect1_dropShadow_95_173" result="shape"/>
</filter>
<filter id="filter4_d_95_173" x="552.097" y="770.742" width="130.371" height="93.6855" filterUnits="userSpaceOnUse" color-interpolation-filters="sRGB">
<feFlood flood-opacity="0" result="BackgroundImageFix"/>
<feColorMatrix in="SourceAlpha" type="matrix" values="0 0 0 0 0 0 0 0 0 0 0 0 0 0 0 0 0 0 127 0" result="hardAlpha"/>
<feOffset dy="20"/>
<feGaussianBlur stdDeviation="5"/>
<feComposite in2="hardAlpha" operator="out"/>
<feColorMatrix type="matrix" values="0 0 0 0 0 0 0 0 0 0 0 0 0 0 0 0 0 0 0.25 0"/>
<feBlend mode="normal" in2="BackgroundImageFix" result="effect1_dropShadow_95_173"/>
<feBlend mode="normal" in="SourceGraphic" in2="effect1_dropShadow_95_173" result="shape"/>
</filter>
<linearGradient id="paint0_linear_95_173" x1="968.857" y1="781.086" x2="861.815" y2="752.751" gradientUnits="userSpaceOnUse">
<stop stop-color="#E4773B"/>
<stop offset="0.665" stop-color="#FFC000"/>
</linearGradient>
<linearGradient id="paint1_linear_95_173" x1="883.853" y1="313.788" x2="847.678" y2="496.65" gradientUnits="userSpaceOnUse">
<stop stop-color="#FFC000"/>
<stop offset="1" stop-color="#F78A2B"/>
</linearGradient>
<linearGradient id="paint2_linear_95_173" x1="951.022" y1="249.473" x2="951.022" y2="766.431" gradientUnits="userSpaceOnUse">
<stop stop-color="#FFC000"/>
<stop offset="1" stop-color="#F78A2B"/>
</linearGradient>
</defs>
</svg>
