<svg width="1024" height="1024" viewBox="0 0 1024 1024" fill="none" xmlns="http://www.w3.org/2000/svg">
<rect width="1024" height="1024" fill="white"/>
<circle cx="715.5" cy="467.5" r="21.5" fill="#FED356"/>
<rect x="114.5" y="412" width="80" height="240" rx="36" fill="url(#paint0_linear_470_200)"/>
<rect x="474.5" y="432" width="80" height="160" rx="36" fill="url(#paint1_linear_470_200)"/>
<rect x="594.5" y="272" width="80" height="520" rx="36" fill="url(#paint2_linear_470_200)"/>
<rect x="834.5" y="392" width="80" height="240" rx="36" fill="url(#paint3_linear_470_200)"/>
<path d="M49.6667 530.5C49.6667 542.282 59.2179 551.834 71 551.834C82.7821 551.834 92.3333 542.282 92.3333 530.5C92.3333 518.718 82.7821 509.167 71 509.167C59.2179 509.167 49.6667 518.718 49.6667 530.5ZM441 506L443.363 502.773L443.357 502.768L441 506ZM932.167 558.5C932.167 570.282 941.718 579.833 953.5 579.833C965.282 579.833 974.833 570.282 974.833 558.5C974.833 546.718 965.282 537.167 953.5 537.167C941.718 537.167 932.167 546.718 932.167 558.5ZM73.2698 533.794C107.458 510.233 166.931 480.665 233.888 468.764C300.803 456.869 374.795 462.672 438.643 509.232L443.357 502.768C377.205 454.528 300.781 448.748 232.487 460.887C164.236 473.019 103.709 503.101 68.7302 527.207L73.2698 533.794ZM438.637 509.228C467.642 530.464 551.418 568.291 656.757 496.302L652.243 489.698C550.382 559.309 470.358 522.537 443.363 502.773L438.637 509.228ZM656.757 496.302C707.1 461.898 766.25 465.139 820.363 483.733C874.473 502.326 922.864 536.07 950.81 561.461L956.19 555.539C927.636 529.596 878.327 495.191 822.962 476.167C767.6 457.144 705.5 453.302 652.243 489.698L656.757 496.302Z" fill="url(#paint4_linear_470_200)"/>
<rect x="354.5" y="212" width="80" height="600" rx="36" fill="url(#paint5_linear_470_200)"/>
<rect x="714.5" y="352" width="80" height="320" rx="36" fill="url(#paint6_linear_470_200)"/>
<rect x="234.5" y="352" width="80" height="380" rx="36" fill="url(#paint7_linear_470_200)"/>
<circle cx="474.5" cy="524.5" r="21.5" fill="#FFC92C"/>
<defs>
<linearGradient id="paint0_linear_470_200" x1="146.75" y1="400.6" x2="12.799" y2="519.858" gradientUnits="userSpaceOnUse">
<stop stop-color="#FF4747"/>
<stop offset="1" stop-color="#992B2B"/>
</linearGradient>
<linearGradient id="paint1_linear_470_200" x1="506.75" y1="424.4" x2="420.481" y2="539.61" gradientUnits="userSpaceOnUse">
<stop stop-color="#FF4747"/>
<stop offset="1" stop-color="#992B2B"/>
</linearGradient>
<linearGradient id="paint2_linear_470_200" x1="626.75" y1="247.3" x2="421.31" y2="331.718" gradientUnits="userSpaceOnUse">
<stop stop-color="#FF4747"/>
<stop offset="1" stop-color="#992B2B"/>
</linearGradient>
<linearGradient id="paint3_linear_470_200" x1="866.75" y1="380.6" x2="732.799" y2="499.858" gradientUnits="userSpaceOnUse">
<stop stop-color="#FF4747"/>
<stop offset="1" stop-color="#992B2B"/>
</linearGradient>
<linearGradient id="paint4_linear_470_200" x1="610" y1="426" x2="736" y2="643.5" gradientUnits="userSpaceOnUse">
<stop stop-color="#FEC728"/>
<stop offset="1" stop-color="#FFEDB8"/>
</linearGradient>
<linearGradient id="paint5_linear_470_200" x1="386.75" y1="183.5" x2="173.648" y2="259.391" gradientUnits="userSpaceOnUse">
<stop stop-color="#FF4747"/>
<stop offset="1" stop-color="#992B2B"/>
</linearGradient>
<linearGradient id="paint6_linear_470_200" x1="746.75" y1="336.8" x2="580.671" y2="447.697" gradientUnits="userSpaceOnUse">
<stop stop-color="#FF4747"/>
<stop offset="1" stop-color="#992B2B"/>
</linearGradient>
<linearGradient id="paint7_linear_470_200" x1="266.75" y1="333.95" x2="84.3073" y2="436.538" gradientUnits="userSpaceOnUse">
<stop stop-color="#FF4747"/>
<stop offset="1" stop-color="#992B2B"/>
</linearGradient>
</defs>
</svg>
