<svg width="60" height="60" viewBox="0 0 60 60" fill="none" xmlns="http://www.w3.org/2000/svg">
<path d="M5 11H14.8361L23.298 42.6314H24.5998L33.0617 11H42.8978L32.6278 46.9843H15.27L5 11Z" fill="black"/>
<path d="M55 41.1078C55 42.0752 54.8071 42.9941 54.4214 43.8647C54.0839 44.6869 53.6017 45.4124 52.9749 46.0412C52.3481 46.6216 51.6008 47.081 50.7329 47.4196C49.9132 47.8065 49.0453 48 48.1292 48C47.1649 48 46.2729 47.8065 45.4532 47.4196C44.6336 47.081 43.9103 46.6216 43.2835 46.0412C42.6567 45.4124 42.1504 44.6869 41.7647 43.8647C41.4272 42.9941 41.2584 42.0752 41.2584 41.1078C41.2584 40.1405 41.4272 39.2458 41.7647 38.4235C42.1504 37.5529 42.6567 36.8274 43.2835 36.2471C43.9103 35.6183 44.6336 35.1346 45.4532 34.7961C46.2729 34.4091 47.1649 34.2157 48.1292 34.2157C49.0453 34.2157 49.9132 34.4091 50.7329 34.7961C51.6008 35.1346 52.3481 35.6183 52.9749 36.2471C53.6017 36.8274 54.0839 37.5529 54.4214 38.4235C54.8071 39.2458 55 40.1405 55 41.1078Z" fill="black"/>
</svg>
